<svg viewBox="0 0 1024 1024" xmlns="http://www.w3.org/2000/svg" fill-rule="evenodd" clip-rule="evenodd" stroke-linejoin="round" stroke-miterlimit="2"><path fill="#2d5da3" d="M0 0h1024v1024H0z"/><path d="M295.7 402.369c-6.84 22.307-24.34 38.112-44.834 38.112-26.395 0-47.825-26.214-47.825-58.503 0-32.288 21.43-58.503 47.825-58.503 20.432 0 37.89 15.708 44.734 37.783h148.262c1.218-8.912 10.361-15.844 21.443-15.846h8.784l2.244-36.581c-46.105-12.183-79.533-47.97-79.533-90.175 0-52.226 51.194-94.63 114.25-94.63 63.059 0 114.253 42.404 114.253 94.63 0 42.642-34.128 78.735-80.974 90.546l2.004 36.21h9.795c11.166.065 20.23 6.974 21.443 15.846h148.364c7.193-21.186 24.279-36.101 44.188-36.101 26.395 0 47.824 26.214 47.824 58.503 0 32.288-21.429 58.501-47.824 58.501-21.007 0-38.869-16.603-45.322-39.792H577.335c-1.981 8.314-10.656 14.488-21.207 14.544h-5.836l16.217 292.925c1.278 34.713 9.505 60.555 30.94 69.532l.03.123c74.325-15.994 133.886-51.443 168.657-92.826l-64.734-40.787 190.317-84.487-13.372 195.98-61.486-38.743c-13.25 101.502-146.071 181.343-307.74 181.343-159.9 0-291.58-78.103-307.264-178.015l-56.204 35.414-13.371-195.979 190.316 84.487-63.758 40.173c33.655 41.036 90.774 76.3 162.81 92.706 18.063-14.775 27.011-38.849 30.08-68.92l17.973-292.926h-4.398c-10.474 0-19.214-6.194-21.205-14.544H295.7zm215.35-238.04c36.203 0 65.593 24.344 65.593 54.327 0 29.984-29.39 54.328-65.592 54.328-36.2 0-65.59-24.344-65.59-54.328 0-29.983 29.39-54.326 65.59-54.326z" fill="#fff"/></svg>